<svg xmlns="http://www.w3.org/2000/svg" viewBox="316.731 228.09 902.839 340.67"><path d="M319.84 349.24c-.31 2.07.06 4.88.88 10.06.83 5.18 1.48 8.81 3.25 15.86 1.77 7.05 2.97 12.24 5.59 19.39 2.62 7.14 4.33 10.65 7.51 16.33 3.18 5.69 4.97 8.18 8.4 12.09 3.42 3.9 5.11 5.54 8.72 7.44 3.61 1.9 5.82 2.46 9.32 2.06 3.51-.4 5.15-1.6 8.21-4.07 3.05-2.47 4.48-4.14 7.07-8.28 2.59-4.13 3.85-6.87 5.88-12.39 2.03-5.53 2.74-8.91 4.26-15.22 1.53-6.31 2.26-9.7 3.39-16.33 1.13-6.64 1.57-10.37 2.25-16.86.68-6.49.91-9.88 1.16-15.61.26-5.73.23-8.7.11-13.03-.13-4.34-.12-5.99-.75-8.64-.62-2.65-1.23-3.67-2.38-4.63s-2.21-.88-3.36-.17c-1.14.71-1.85 1.55-2.36 3.71-.52 2.16-.41 3.43-.22 7.08.2 3.65.7 5.8 1.18 11.18.48 5.37.78 8.53 1.23 15.7.44 7.18.41 11.36.99 20.18.57 8.81.99 13.87 1.89 23.9.89 10.03 1.55 15.53 2.58 26.24 1.03 10.72 1.79 16.49 2.56 27.35.77 10.85 1.15 16.71 1.3 26.93.15 10.21.03 15.4-.55 24.13-.57 8.74-.98 12.83-2.33 19.53-1.35 6.71-2.33 9.65-4.44 14-2.11 4.36-3.56 5.76-6.1 7.76-2.54 2-3.9 2.05-6.59 2.24-2.69.19-4.16-.2-6.87-1.27-2.7-1.07-4.2-1.86-6.66-4.06-2.46-2.21-3.89-3.67-5.62-6.97-1.74-3.3-2.32-5.12-3.05-9.53-.73-4.4-.8-7.01-.61-12.5.19-5.49.43-8.75 1.54-14.93 1.12-6.19 2.1-9.46 4.05-15.99 1.95-6.52 3.15-9.93 5.7-16.64 2.55-6.72 4.12-10.19 7.05-16.93 2.93-6.74 4.51-10.15 7.58-16.79 3.08-6.63 4.67-10.09 7.8-16.38 3.12-6.29 4.79-9.27 7.83-15.07 3.04-5.8 4.43-8.58 7.37-13.93 2.94-5.34 4.48-7.91 7.31-12.8 2.84-4.89 4.41-7.22 6.87-11.63 2.45-4.4 3.46-6.49 5.41-10.4 1.96-3.9 2.77-5.73 4.36-9.13 1.59-3.4 2.57-5.12 3.59-7.89 1.02-2.77 1.4-4.16 1.52-5.97.13-1.81-.2-2.57-.88-3.07-.68-.49-1.58-.58-2.5.59-.91 1.16-1.82 2.22-2.07 5.23-.24 3 .29 5.35.86 9.81.58 4.46 1.25 7.16 2.03 12.48.79 5.33 1.09 8.28 1.91 14.16.82 5.88 1.46 9.36 2.19 15.27.73 5.9.85 8.83 1.47 14.25.62 5.41 1.07 8.14 1.64 12.83.57 4.69.57 6.93 1.2 10.61.63 3.68.66 5.55 1.94 7.79 1.28 2.24 2.45 3.03 4.44 3.41 1.99.39 3.5.12 5.51-1.48s2.78-3.09 4.52-6.52c1.73-3.42 2.5-5.74 4.16-10.59 1.65-4.84 2.64-7.86 4.11-13.62 1.47-5.76 2.05-9.1 3.24-15.19 1.19-6.08 1.71-9.4 2.7-15.24.99-5.83 1.4-9.03 2.26-13.93.86-4.91 1.28-7.11 2.03-10.6.76-3.5 1.3-4.71 1.76-6.88.46-2.16.38-3.09.53-3.95.16-.87.04-.84.25-.37.2.47.14 1.07.77 2.71.64 1.64 1.1 2.63 2.42 5.5 1.32 2.87 2.55 4.63 4.19 8.83 1.64 4.2 2.55 6.89 4.01 12.16 1.46 5.27 2 8.43 3.28 14.2 1.28 5.78 1.83 9.1 3.11 14.68 1.27 5.58 2.13 8.35 3.25 13.21 1.11 4.86 1.48 7.33 2.32 11.09.84 3.76.82 5.43 1.88 7.7 1.05 2.27 2.18 2.7 3.39 3.65 1.2.94 1.72.96 2.62 1.09.9.13 1.51-.01 1.88-.44.38-.43.21-1.28-.01-1.7-.22-.42-.66-.13-1.08-.41-.42-.28-.46-.19-1.01-.98-.55-.78-.99-.96-1.74-2.94-.76-1.97-1.03-3.37-2.04-6.95-1-3.57-1.68-6.12-2.98-10.92-1.29-4.8-2.19-7.55-3.49-13.09-1.31-5.55-1.84-8.83-3.03-14.64-1.2-5.81-1.7-9-2.94-14.41-1.25-5.42-2.06-8.19-3.3-12.67-1.24-4.47-1.7-6.54-2.91-9.72-1.21-3.18-1.64-4.41-3.14-6.18-1.5-1.76-2.69-2.4-4.37-2.64-1.68-.24-2.79.22-4.02 1.44-1.23 1.22-1.45 2.27-2.15 4.66-.7 2.38-.81 3.64-1.36 7.25-.54 3.62-.7 5.86-1.36 10.82-.67 4.95-1.02 8.13-1.94 13.95-.93 5.82-1.44 9.14-2.68 15.14-1.23 6.01-1.86 9.32-3.5 14.91s-2.76 8.52-4.69 13.06c-1.93 4.53-3.3 6.57-4.97 9.62-1.67 3.05-2.39 4.11-3.38 5.63-1 1.51-1.06 2.04-1.59 1.96-.53-.08-.53-.51-1.08-2.34-.55-1.84-.96-3.42-1.69-6.85-.73-3.43-1.16-5.7-1.95-10.31-.78-4.6-1.26-7.33-1.96-12.72-.71-5.39-.84-8.33-1.56-14.24-.72-5.91-1.35-9.4-2.04-15.3-.69-5.89-.96-8.86-1.4-14.17-.44-5.31-.82-8.05-.78-12.37.03-4.32.95-6.36.96-9.22.02-2.86-.27-3.78-.89-5.08-.62-1.31-1.27-1.58-2.22-1.45-.94.14-1.56.57-2.49 2.1-.93 1.54-1.25 2.86-2.17 5.59-.92 2.73-1.21 4.62-2.44 8.08-1.22 3.45-1.97 5.28-3.7 9.2-1.74 3.92-2.68 5.99-4.99 10.41-2.31 4.43-3.83 6.79-6.57 11.72-2.74 4.94-4.25 7.57-7.13 12.97s-4.26 8.19-7.26 14.03-4.65 8.84-7.76 15.16c-3.1 6.33-4.69 9.8-7.77 16.46-3.08 6.66-4.66 10.07-7.62 16.83-2.95 6.77-4.55 10.25-7.16 17-2.62 6.75-3.85 10.16-5.91 16.76-2.06 6.59-3.12 9.89-4.38 16.19-1.27 6.31-1.59 9.62-1.94 15.32-.35 5.7-.42 8.37.21 13.18.62 4.8 1.08 6.97 2.91 10.84s3.35 5.81 6.23 8.51c2.88 2.7 4.75 3.79 8.17 5 3.43 1.2 5.51 1.59 8.96 1.05 3.44-.54 5.35-1.16 8.27-3.75 2.93-2.6 4.26-4.44 6.36-9.23 2.09-4.79 2.89-7.81 4.12-14.72 1.23-6.91 1.56-11 2.04-19.82.49-8.82.58-14.01.39-24.27-.2-10.26-.59-16.14-1.36-27.02-.77-10.88-1.53-16.66-2.51-27.38-.99-10.73-1.62-16.22-2.42-26.24-.8-10.03-1.17-15.06-1.58-23.87-.4-8.81-.31-12.98-.45-20.17-.15-7.18-.34-10.38-.28-15.73.07-5.36.41-7.51.6-11.04.19-3.53.56-4.69.37-6.63-.18-1.94-.88-2.52-1.29-3.06-.42-.55-.68-.59-.79.33-.11.91-.14 1.78.23 4.23s1.19 3.86 1.62 8.01c.42 4.14.57 7.08.49 12.71-.08 5.63-.26 9.01-.88 15.43-.61 6.42-1.06 10.12-2.21 16.68-1.15 6.55-1.91 9.91-3.53 16.08-1.61 6.17-2.43 9.5-4.53 14.76s-3.47 7.8-5.97 11.54c-2.5 3.73-3.98 5.06-6.52 7.14-2.53 2.09-3.48 2.86-6.15 3.27-2.68.41-4.16.29-7.24-1.21-3.07-1.5-4.86-2.74-8.14-6.28-3.29-3.54-5.16-5.96-8.27-11.43-3.12-5.48-4.77-8.93-7.3-15.96-2.53-7.02-3.68-12.19-5.36-19.15-1.68-6.97-2.18-10.57-3.06-15.68-.88-5.1-.58-7.92-1.34-9.84-.76-1.91-2.13-1.79-2.45.27" style="stroke:#606060;fill:#606060"/><path d="M565.55 323.65c-.88-.72-1.92-1.14-4.21-1.23-2.29-.09-4-.04-7.24.78-3.24.83-5.48 1.63-8.95 3.34-3.47 1.71-5.42 2.77-8.42 5.22-3.01 2.45-4.48 3.98-6.59 7.04-2.1 3.07-3 4.89-3.95 8.28-.96 3.38-1.2 5.28-.81 8.64.4 3.36 1.01 5.18 2.8 8.16 1.78 2.97 3.21 4.26 6.15 6.7 2.93 2.45 4.83 3.39 8.54 5.52 3.71 2.13 5.97 3.13 10 5.13s6.34 2.86 10.17 4.86c3.82 2 5.69 2.95 8.95 5.14 3.26 2.19 4.85 3.44 7.37 5.8 2.51 2.36 3.69 3.73 5.21 5.99 1.52 2.26 2.01 3.21 2.38 5.31.37 2.09.09 3.01-.56 5.17-.64 2.16-1.2 3.45-2.68 5.63-1.47 2.17-2.31 3.35-4.7 5.23-2.38 1.88-3.8 2.78-7.23 4.17-3.43 1.39-5.58 2.01-9.92 2.77-4.34.76-6.98.94-11.76 1.04-4.79.1-7.6-.07-12.16-.55-4.57-.48-6.92-.8-10.68-1.84-3.76-1.03-5.42-1.82-8.11-3.33-2.7-1.5-3.86-2.43-5.36-4.18-1.5-1.75-1.9-2.48-2.14-4.56-.24-2.09.28-3.62.93-5.88.65-2.25 1.33-3.31 2.31-5.41.99-2.09 2.5-3.68 2.63-5.06.13-1.37-.49-2.19-1.97-1.8-1.48.4-3.69 1.62-5.44 3.78-1.76 2.16-2.61 3.96-3.32 7.01-.71 3.06-.9 5.23-.23 8.26.67 3.03 1.47 4.52 3.57 6.87 2.11 2.36 3.72 3.26 6.95 4.89 3.23 1.62 5.1 2.24 9.2 3.23 4.09 1 6.51 1.26 11.28 1.73 4.78.46 7.61.64 12.59.59 4.99-.06 7.71-.18 12.34-.87 4.64-.68 6.94-1.19 10.84-2.56 3.91-1.36 5.68-2.17 8.67-4.24 2.99-2.07 4.37-3.41 6.29-6.12 1.91-2.71 2.58-4.47 3.27-7.45.7-2.97.79-4.51.21-7.43-.58-2.93-1.22-4.45-3.12-7.19-1.89-2.74-3.45-4.02-6.34-6.49-2.89-2.48-4.61-3.67-8.1-5.9-3.49-2.23-5.44-3.2-9.34-5.25-3.9-2.05-6.21-2.94-10.17-4.98-3.96-2.04-6.17-3.11-9.64-5.22-3.47-2.11-5.19-3.14-7.71-5.35-2.53-2.21-3.52-3.31-4.91-5.69-1.38-2.38-1.73-3.63-2.02-6.22-.3-2.59-.2-4.01.54-6.74.73-2.72 1.37-4.32 3.12-6.88 1.76-2.56 3-3.92 5.66-5.92 2.65-2 4.45-2.82 7.63-4.08 3.18-1.27 5.34-1.5 8.27-2.25 2.94-.75 4.39-.85 6.4-1.5 2.01-.66 2.96-.93 3.66-1.75.7-.83.72-1.65-.15-2.36M657.74 337.44c-.33-.99-1.07-1.66-2.63-2.62-1.56-.96-2.66-1.63-5.17-2.2-2.52-.56-4.18-.73-7.41-.62-3.23.12-5.46.18-8.74 1.19-3.27 1-4.74 1.76-7.65 3.84s-4.45 3.42-6.9 6.54c-2.44 3.13-3.61 4.89-5.33 9.09-1.72 4.2-2.33 6.61-3.26 11.93-.93 5.32-1.2 8.64-1.4 14.69-.19 6.05-.18 9.33.4 15.56.58 6.24 1.1 9.54 2.52 15.62s2.69 9.53 4.59 14.76c1.9 5.24 2.84 7.55 4.92 11.4 2.09 3.85 2.92 5.71 5.49 7.85 2.57 2.13 4.58 2.88 7.37 2.81 2.79-.07 3.99-.7 6.58-3.16s3.85-4.69 6.37-9.14c2.53-4.45 3.88-7.11 6.28-13.11 2.39-6 3.73-9.87 5.7-16.87 1.98-7 2.81-11.18 4.18-18.13 1.37-6.96 1.88-10.71 2.69-16.63.82-5.92.83-8.62 1.4-12.97.56-4.35 1.28-6.23 1.44-8.79.17-2.57-.36-3.65-.62-4.04-.25-.39-1.05.05-.66 2.1.39 2.05 1.33 3.86 2.6 8.17 1.27 4.3 2.3 7.16 3.76 13.37 1.45 6.21 2.26 10.25 3.54 17.66 1.27 7.42 1.85 12.2 2.85 19.41 1.01 7.21 1.38 10.82 2.18 16.63.8 5.82.91 8.85 1.81 12.44.9 3.6 1.85 4.52 2.67 5.53.81 1.01 1.35.75 1.41-.48.06-1.23-.51-2.09-1.12-5.67-.62-3.58-1.08-6.46-1.96-12.22-.88-5.77-1.41-9.38-2.45-16.59-1.05-7.21-1.61-12-2.75-19.48-1.15-7.47-1.82-11.55-2.97-17.9-1.15-6.35-1.66-9.32-2.79-13.84-1.13-4.52-1.46-6.7-2.87-8.75-1.42-2.04-2.83-2.08-4.21-1.48-1.38.6-2.06 1.76-2.7 4.48-.64 2.73-.25 4.72-.51 9.13-.26 4.42-.13 7.06-.79 12.94-.65 5.89-1.15 9.61-2.48 16.48-1.34 6.87-2.16 11.02-4.2 17.89-2.04 6.86-3.48 10.66-6.01 16.41-2.53 5.76-4.06 8.31-6.65 12.36-2.59 4.06-4.35 5.81-6.32 7.92-1.96 2.11-1.91 2.58-3.51 2.64-1.6.06-2.55-.61-4.48-2.35-1.94-1.75-3.12-2.96-5.18-6.38-2.07-3.42-3.16-5.71-5.13-10.72-1.97-5.02-3.28-8.43-4.71-14.34-1.43-5.91-1.92-9.13-2.44-15.21s-.47-9.31-.17-15.18c.31-5.88.65-9.15 1.68-14.18 1.04-5.04 1.77-7.25 3.51-11.01 1.73-3.76 2.89-5.2 5.17-7.81 2.29-2.6 3.75-3.67 6.25-5.22 2.5-1.54 3.52-1.99 6.24-2.49 2.73-.5 4.66-.09 7.39 0 2.73.09 4.1.21 6.27.44 2.16.24 2.95.61 4.54.73 1.6.12 2.54.36 3.42-.12.87-.49 1.28-1.32.95-2.31M716.36 333.31c-.58 1.12-.64 2.18-.71 5.43-.06 3.25.15 5.39.39 10.82.24 5.42.42 9.28.81 16.31.38 7.03.59 11.47 1.1 18.83.52 7.36.98 11.46 1.46 17.96s.65 9.71.94 14.54c.29 4.82-.1 7.08.5 9.6.6 2.51 1.56 3.08 2.51 2.96.96-.12 1.9-1.05 2.27-3.57.37-2.51-.29-4.44-.41-9-.12-4.55-.32-7.68-.2-13.77.13-6.08.35-9.93.83-16.66.49-6.74.67-10.61 1.59-17.03.92-6.42 1.54-9.76 3.02-15.07 1.49-5.3 2.47-7.71 4.42-11.45 1.94-3.73 2.99-5.22 5.3-7.22 2.31-2 3.74-2.33 6.24-2.77 2.49-.44 3.56-.49 6.23.56 2.67 1.06 4.26 1.84 7.13 4.71s4.57 4.88 7.22 9.63c2.65 4.74 3.94 7.99 6.03 14.08 2.1 6.09 3.07 9.57 4.44 16.38 1.37 6.82 1.71 10.91 2.41 17.7.7 6.79.76 10.48 1.09 16.25.32 5.78.27 8.42.53 12.62.26 4.2.26 6.04.78 8.37.52 2.34 1.09 2.55 1.81 3.31.72.75 1 .62 1.8.48.8-.15 1.85-.58 2.2-1.22.35-.63.36-1.81-.47-1.95-.83-.14-3 .93-3.67 1.25-.67.33.04.22.32.39.28.16.71.37 1.08.43.37.07.57.56.79-.11.21-.67.49-.99.27-3.24-.23-2.26-.87-3.93-1.39-8.04-.52-4.1-.68-6.73-1.19-12.49-.52-5.77-.61-9.48-1.37-16.33-.76-6.85-1.09-10.98-2.43-17.92-1.35-6.94-2.27-10.47-4.29-16.78-2.02-6.3-3.17-9.65-5.8-14.76-2.63-5.1-4.21-7.39-7.34-10.76s-4.91-4.71-8.31-6.09c-3.41-1.37-5.36-1.47-8.7-.79-3.35.68-5.3 1.64-8.03 4.21-2.73 2.56-3.66 4.48-5.63 8.64-1.98 4.16-2.82 6.64-4.26 12.16-1.43 5.52-1.99 8.91-2.93 15.44-.93 6.52-1.11 10.39-1.74 17.17-.63 6.78-.95 10.61-1.41 16.74-.45 6.13-.72 9.31-.86 13.92-.14 4.62-.33 6.66.17 9.14.5 2.48 1.58 3.24 2.34 3.26.75.01 1.38-.66 1.45-3.19.06-2.53-.6-4.67-1.12-9.47-.52-4.79-.89-8.01-1.49-14.49-.6-6.47-1.04-10.56-1.49-17.9-.45-7.34-.58-11.78-.76-18.78-.18-7.01-.19-10.84-.15-16.26.03-5.42.55-7.59.33-10.85-.22-3.26-.69-4.41-1.42-5.47-.73-1.07-1.64-.97-2.23.14M870.98 340.13c-.14-.85-.29-1.43-1.6-2.32-1.3-.89-2.37-1.81-4.93-2.12-2.56-.31-4.51-.35-7.87.59-3.36.94-5.25 1.91-8.92 4.11-3.68 2.21-5.83 3.58-9.44 6.9-3.6 3.32-5.38 5.32-8.57 9.72-3.18 4.41-4.88 7.13-7.34 12.3-2.45 5.18-3.59 8.12-4.94 13.59-1.35 5.47-1.65 8.27-1.8 13.75-.15 5.47-.04 8.38 1.05 13.64 1.09 5.27 2.06 8 4.39 12.69 2.33 4.69 3.96 6.91 7.25 10.77 3.29 3.85 5.13 5.69 9.19 8.51 4.07 2.81 6.4 3.98 11.14 5.55 4.74 1.58 7.46 2.16 12.56 2.32 5.1.17 7.74-.36 12.93-1.5 5.2-1.14 8.41-2.27 13.04-4.2 4.63-1.94 6.82-3.34 10.11-5.48 3.29-2.15 5.32-3.83 6.34-5.24 1.02-1.4.4-2.22-1.24-1.8-1.65.42-3.66 2.06-6.99 3.9-3.32 1.84-5.23 3.4-9.63 5.31-4.4 1.9-7.48 3.08-12.37 4.22-4.89 1.14-7.35 1.62-12.09 1.47-4.74-.14-7.22-.73-11.6-2.19s-6.52-2.51-10.3-5.11c-3.78-2.61-5.5-4.31-8.6-7.9-3.09-3.6-4.65-5.67-6.87-10.06-2.22-4.39-3.16-6.93-4.22-11.89-1.05-4.97-1.19-7.73-1.05-12.93.13-5.21.42-7.88 1.73-13.09 1.32-5.21 2.42-8.03 4.82-12.95 2.41-4.93 4.1-7.55 7.22-11.66 3.12-4.1 4.89-5.94 8.39-8.85 3.49-2.9 5.66-4.08 9.08-5.67 3.43-1.58 5.23-1.86 8.03-2.26 2.81-.41 4.01.17 6.01.24 2 .07 2.75.19 3.99.1 1.24-.08 1.59-.05 2.21-.54.62-.49 1.03-1.08.89-1.92M916.49 232.4c-.2 1.26.39 2.3 1.15 5.44.75 3.14 1.67 5.03 2.62 10.26.96 5.22 1.41 8.63 2.15 15.87.75 7.23.93 11.62 1.56 20.32.64 8.69.95 13.66 1.61 23.15.65 9.48.92 14.57 1.66 24.28.74 9.7 1.27 14.98 2.03 24.24.77 9.26 1.17 13.85 1.8 22.04.63 8.19.87 12.17 1.36 18.91.5 6.73.48 10.19 1.13 14.77.65 4.59.84 6.45 2.12 8.15 1.28 1.7 2.76 1.58 4.27.34 1.5-1.24 1.99-2.85 3.26-6.53 1.26-3.67 1.62-6.43 3.06-11.84 1.44-5.4 2.13-8.68 4.13-15.2 1.99-6.51 3.32-10.39 5.85-17.36 2.54-6.97 4.05-10.79 6.82-17.5 2.76-6.71 4.26-10.33 7.03-16.05 2.77-5.71 4.15-8.23 6.81-12.52 2.66-4.29 4.07-6.01 6.49-8.92 2.41-2.9 3.79-3.74 5.57-5.6 1.79-1.87 2.55-2.72 3.35-3.72.8-1.01.85-1.28.66-1.33-.19-.04-.64.13-1.62 1.11-.98.98-1.78 1.69-3.28 3.82-1.5 2.12-2.03 3.86-4.23 6.81-2.2 2.95-3.76 4.6-6.78 7.94-3.02 3.35-4.97 5.18-8.31 8.78-3.35 3.59-5.28 5.63-8.43 9.19-3.15 3.57-4.83 5.44-7.33 8.63-2.5 3.19-3.67 4.49-5.17 7.33s-2.08 4.08-2.32 6.88c-.23 2.79.09 4.34 1.14 7.11 1.05 2.78 2.09 4.01 4.13 6.76 2.05 2.76 3.23 4.07 6.11 7.03 2.88 2.97 4.69 4.57 8.28 7.82 3.59 3.24 5.51 5.21 9.67 8.41s6.6 4.72 11.11 7.6c4.52 2.88 6.86 4.42 11.47 6.79s7.12 3.5 11.59 5.07c4.47 1.56 6.51 2.01 10.77 2.74 4.27.73 6.45 1.12 10.56.9 4.11-.21 6.14-.53 9.99-1.98 3.85-1.46 5.77-2.64 9.26-5.3 3.5-2.65 5.32-4.4 8.21-7.95 2.89-3.56 3.93-5.64 6.25-9.82 2.32-4.18 3.37-6.5 5.36-11.1 2-4.6 3.2-7.28 4.6-11.88 1.39-4.6 1.79-7.04 2.38-11.12.59-4.09.67-6.11.56-9.32-.11-3.22-.2-4.98-1.11-6.77-.92-1.78-2.02-2.34-3.48-2.16-1.46.19-2.84.81-3.82 3.08-.98 2.26-1.06 4.19-1.09 8.24-.03 4.05.44 6.79.96 12.01.53 5.22.8 8.46 1.67 14.07.87 5.61 1.32 8.6 2.7 13.98 1.37 5.39 2.34 8.2 4.18 12.94 1.84 4.74 2.94 7.07 5.01 10.75 2.07 3.68 2.87 5.39 5.33 7.65 2.46 2.26 3.93 3.24 6.98 3.65 3.05.41 5.09.14 8.27-1.6 3.18-1.75 4.66-3.5 7.61-7.14 2.95-3.65 4.32-6.09 7.12-11.07s4.37-8.07 6.89-13.83c2.52-5.77 3.74-9.09 5.71-14.99 1.97-5.91 2.71-9.01 4.14-14.55 1.44-5.54 1.93-8.49 3.04-13.15 1.11-4.67 2.03-7.17 2.5-10.17.48-2.99.17-4.02-.11-4.81-.29-.79-1.25-.73-1.31.86-.07 1.59.3 2.93.97 7.09.67 4.17 1.39 7.13 2.38 13.75s1.69 10.78 2.56 19.37c.87 8.58 1.2 13.57 1.81 23.55.62 9.98.94 15.59 1.27 26.36.32 10.76.41 16.56.35 27.46-.07 10.91-.06 16.7-.68 27.06-.61 10.36-.86 15.62-2.41 24.72-1.54 9.11-2.64 13.52-5.29 20.83-2.66 7.3-4.49 10.62-7.98 15.69s-5.61 6.97-9.47 9.64c-3.86 2.67-6.07 3.2-9.82 3.72-3.74.51-5.68.06-8.91-1.14-3.23-1.2-4.68-2.28-7.24-4.87-2.56-2.59-3.8-4.26-5.55-8.08-1.74-3.82-2.68-6.12-3.19-11.03-.51-4.91-.62-7.78.65-13.54 1.27-5.76 2.51-8.81 5.71-15.26 3.19-6.46 5.52-10.33 10.24-17.03 4.73-6.71 7.71-10.09 13.38-16.5 5.66-6.41 8.87-10.08 14.96-15.54 6.09-5.46 9.33-7.71 15.5-11.78 6.17-4.07 9.42-5.96 15.34-8.58s8.96-3.35 14.27-4.53c5.31-1.18 7.83-1.2 12.28-1.37 4.45-.16 6.42.14 9.97.55 3.54.41 5.2 1.04 7.77 1.49 2.57.46 3.46.64 5.07.78 1.62.14 2.11.38 3-.09.9-.46 1.33-1.19 1.47-2.23.13-1.04-.42-2.18-.78-2.98-.37-.81-.39-.93-1.06-1.04-.66-.11-1.38.03-2.27.5-.89.47-1.74.84-2.17 1.86-.42 1.01-.47 2.38.05 3.2.51.83 1.57 1.01 2.53.92.96-.09 1.76-.82 2.27-1.38.5-.56.64-.8.25-1.41-.4-.6-.73-.98-2.24-1.62-1.5-.63-2.57-1.13-5.3-1.54-2.73-.4-4.59-.43-8.34-.48-3.76-.05-5.8-.2-10.43.24-4.63.43-7.24.53-12.71 1.93-5.46 1.39-8.58 2.23-14.61 5.03-6.04 2.8-9.32 4.75-15.56 8.95-6.25 4.2-9.51 6.5-15.68 12.05-6.16 5.54-9.39 9.23-15.14 15.68-5.75 6.46-8.76 9.85-13.62 16.61-4.85 6.76-7.26 10.61-10.64 17.2-3.38 6.58-4.78 9.69-6.26 15.73-1.49 6.04-1.57 9.12-1.18 14.47.38 5.34 1.24 7.92 3.09 12.23 1.85 4.32 3.18 6.33 6.16 9.33 2.99 3 4.87 4.37 8.76 5.68 3.89 1.3 6.37 1.63 10.69.86 4.32-.77 6.77-1.66 10.91-4.73 4.14-3.07 6.24-5.23 9.77-10.61 3.54-5.39 5.29-8.82 7.9-16.33 2.62-7.5 3.67-11.97 5.17-21.19s1.72-14.5 2.31-24.91c.6-10.42.58-16.21.66-27.15.07-10.93-.02-16.73-.29-27.52-.27-10.79-.57-16.4-1.07-26.42-.49-10.01-.78-15-1.4-23.64-.63-8.64-1.13-12.81-1.71-19.53-.58-6.72-.51-9.77-1.18-14.07-.67-4.3-1.06-5.78-2.17-7.42-1.11-1.64-2.14-1.57-3.37-.78-1.24.8-1.96 1.72-2.8 4.76-.84 3.05-.64 5.74-1.42 10.46-.79 4.72-1.22 7.64-2.52 13.13-1.29 5.5-2.03 8.55-3.98 14.35-1.94 5.8-3.19 9.06-5.75 14.66-2.57 5.61-4.22 8.64-7.08 13.34-2.87 4.71-4.45 7.01-7.26 10.19-2.81 3.18-4.35 4.3-6.8 5.71-2.44 1.41-3.44 1.59-5.45 1.34-2-.24-2.64-.78-4.56-2.57-1.91-1.79-2.98-3.08-5.02-6.37-2.04-3.28-3.3-5.55-5.18-10.06-1.88-4.51-2.87-7.25-4.2-12.48-1.33-5.22-1.75-8.15-2.43-13.66-.68-5.5-.83-8.77-.98-13.86-.14-5.09.06-7.83.27-11.59.21-3.76.76-5.21.8-7.21.03-2-.31-2.52-.61-2.78-.3-.25-.69-.01-.89 1.51-.2 1.51-.16 3.11-.09 6.07.06 2.96.72 4.88.43 8.73-.3 3.85-.66 6.12-1.91 10.53-1.24 4.41-2.41 7.05-4.33 11.5-1.91 4.45-2.99 6.76-5.25 10.74-2.26 3.98-3.3 5.89-6.03 9.16-2.74 3.28-4.46 4.84-7.65 7.22-3.19 2.39-4.88 3.41-8.29 4.72-3.42 1.31-5.09 1.6-8.8 1.84-3.7.23-5.74-.05-9.74-.66-4-.6-5.96-.94-10.24-2.37-4.29-1.42-6.72-2.48-11.2-4.75-4.48-2.27-6.81-3.77-11.19-6.61-4.39-2.83-6.76-4.35-10.74-7.56-3.98-3.21-5.82-5.19-9.18-8.49-3.36-3.3-5.06-5-7.63-8.01-2.56-3-3.45-4.45-5.19-7.02-1.74-2.56-2.51-3.68-3.51-5.8-1.01-2.11-1.62-2.81-1.53-4.77.09-1.96.72-2.61 1.98-5.02 1.26-2.41 2.09-3.9 4.33-7.03 2.25-3.13 3.86-5.07 6.91-8.6 3.04-3.54 4.94-5.56 8.33-9.07 3.39-3.5 5.34-5.28 8.6-8.45 3.27-3.18 4.98-4.67 7.72-7.42 2.75-2.76 4.4-3.87 6.03-6.36 1.62-2.5 2-4.06 2.09-6.11.09-2.05-.5-3.24-1.63-4.16-1.13-.92-2.26-1.06-4.03-.43-1.77.63-2.85 1.51-4.81 3.57-1.96 2.07-2.78 3.48-5 6.75s-3.57 5.1-6.11 9.6c-2.55 4.51-3.89 7.1-6.6 12.93-2.71 5.83-4.19 9.47-6.96 16.23-2.77 6.75-4.27 10.58-6.9 17.55-2.63 6.98-4 10.87-6.25 17.34-2.24 6.47-3.21 9.7-4.98 15.02-1.77 5.31-2.91 7.95-3.88 11.56-.98 3.6-.83 5.19-.98 6.48-.16 1.28.43 1.46.2-.04-.23-1.51-.7-3.09-1.35-7.5-.65-4.4-1.17-7.86-1.9-14.54-.72-6.68-.99-10.68-1.72-18.86-.74-8.17-1.15-12.77-1.95-22.02s-1.33-14.53-2.06-24.23c-.72-9.7-.98-14.78-1.56-24.27-.57-9.48-.86-14.45-1.33-23.16-.47-8.72-.55-13.1-1.03-20.41-.48-7.32-.71-10.76-1.37-16.17-.67-5.41-.93-7.69-1.96-10.89-1.03-3.21-2.13-4.3-3.19-5.15-1.06-.86-1.92-.4-2.11.87" style="stroke:#606060;fill:#606060"/></svg>
